# xmcd
#
# Track frame offsets:
#	150
#	21666
#	40081
#	68402
#	93829
#	111098
#	132084
#	158152
#	168446
#	185486
#	202137
#
# Disc length: 2866 seconds
#
# Revision: 0
# Processed by: cddbd v1.5.1PL0 Copyright (c) Steve Scherf et al.
# Submitted via: dBpowerAMP V4.0
#
DISCID=900b300b
DTITLE=Pat Dutton Blues Band - Pat Dutton Blues Band
DYEAR=1900
DGENRE=Blues
TTITLE0=E-flat Stomp
TTITLE1=Mistake Of My Life
TTITLE2=Garbage Man
TTITLE3=I'll Take Care Of You
TTITLE4=I'm A Good Man
TTITLE5=Okie Doke Stomp
TTITLE6=I Don't Drink Much
TTITLE7=Cherry Pink
TTITLE8=Breaking Up Somebody's Home
TTITLE9=Peddle To The Medal
TTITLE10=Don't Worry About A Thing
EXTD=
EXTT0=
EXTT1=
EXTT2=
EXTT3=
EXTT4=
EXTT5=
EXTT6=
EXTT7=
EXTT8=
EXTT9=
EXTT10=
PLAYORDER=
